<svg xmlns="http://www.w3.org/2000/svg"
 xmlns:xlink="http://www.w3.org/1999/xlink"
 width="39px" height="41px"  viewBox="0 0 39 41">
<path fill-rule="evenodd"  fill="#ffffff"
 d="M1.0004272,36.770752 C1.0004272,36.770752 1.0004272,34.518066 1.0004272,34.518066 C1.0004272,32.929688 2.2739258,31.64209 3.8447266,31.64209 C3.8447266,31.64209 20.16333,31.64209 20.16333,31.64209 C22.39447,31.64209 23.544922,32.71045 23.544922,34.30127 C23.544922,34.30127 23.544922,37.506836 23.544922,37.506836 C23.544922,39.1687 22.44104,40.0 20.16333,40.0 C20.16333,40.0 3.6306152,40.0 3.6306152,40.0 C1.97052,40.0 1.0004272,38.88379 1.0004272,36.770752 ZM4.2205505,36.960693 C4.2205505,36.960693 20.32492,36.960693 20.32492,36.960693 C20.443115,36.960693 20.539032,36.86377 20.539032,36.74414 C20.539032,36.74414 20.539032,34.897705 20.539032,34.897705 C20.539032,34.77832 20.443115,34.681396 20.32492,34.681396 C20.32492,34.681396 4.2205505,34.681396 4.2205505,34.681396 C4.102234,34.681396 4.006317,34.77832 4.006317,34.897705 C4.006317,34.897705 4.006317,36.74414 4.006317,36.74414 C4.006317,36.86377 4.102234,36.960693 4.2205505,36.960693 ZM13.561462,14.166992 C13.679779,14.166992 13.775696,14.26416 13.775696,14.383545 C13.775696,14.383545 13.775696,14.926758 13.775696,14.926758 C13.775696,14.926758 13.775696,21.438965 13.775696,21.438965 C13.775696,21.438965 13.775696,21.438965 13.775696,21.438965 C13.775696,21.438965 13.775696,21.439941 13.775696,21.439941 C13.775696,21.439941 12.925629,23.752197 12.925629,23.752197 C12.873535,23.893799 12.977112,24.044434 13.126343,24.044434 C13.126343,24.044434 14.319519,24.044434 14.319519,24.044434 C14.388519,24.044434 14.453308,24.010498 14.493591,23.954102 C14.493591,23.954102 30.033752,2.0627441 30.033752,2.0627441 C30.098877,1.9709473 30.222778,1.9453125 30.31836,2.003418 C30.31836,2.003418 33.433655,3.9033203 33.433655,3.9033203 C33.533203,3.9641113 33.56665,4.093994 33.509094,4.196045 C33.509094,4.196045 32.590942,5.8234863 32.590942,5.8234863 C32.57251,5.855957 32.562744,5.8928223 32.562744,5.930664 C32.562744,5.930664 32.562744,15.469971 32.562744,15.469971 C32.562744,15.5896 32.65869,15.686768 32.776978,15.686768 C32.776978,15.686768 33.425293,15.686768 33.425293,15.686768 C33.555542,15.686768 33.6557,15.8029785 33.63739,15.93335 C33.63739,15.93335 32.952637,20.819092 32.952637,20.819092 C32.937683,20.925781 32.84729,21.005127 32.7406,21.005127 C32.7406,21.005127 32.600403,21.005127 32.600403,21.005127 C32.600403,21.005127 32.562744,21.005127 32.562744,21.005127 C32.562744,21.005127 32.562744,22.476562 32.562744,22.476562 C32.562744,22.557617 32.60742,22.631836 32.678833,22.668457 C33.322205,23.000488 33.99066,23.657959 33.99066,24.78833 C33.99066,25.4917 33.753418,26.029053 33.39026,26.41504 C33.30597,26.504639 33.31256,26.647217 33.405396,26.728027 C33.405396,26.728027 36.864807,29.741943 36.864807,29.741943 C37.01532,29.873047 36.923645,30.122559 36.725098,30.122559 C36.725098,30.122559 36.23004,30.122559 36.23004,30.122559 C36.17865,30.122559 36.128967,30.104004 36.09021,30.070312 C36.09021,30.070312 32.63623,27.060791 32.63623,27.060791 C32.579224,27.010986 32.500305,26.994629 32.4292,27.019531 C32.13501,27.122314 31.825562,27.178467 31.519043,27.178467 C31.21521,27.178467 30.913086,27.10669 30.633972,26.975586 C30.559692,26.94043 30.472534,26.950928 30.408875,27.003174 C30.408875,27.003174 26.661743,30.074463 26.661743,30.074463 C26.623657,30.105469 26.57605,30.122559 26.526917,30.122559 C26.526917,30.122559 26.091125,30.118408 26.091125,30.118408 C25.865356,30.11621 25.766357,29.829346 25.941772,29.685791 C25.941772,29.685791 29.762512,26.554688 29.762512,26.554688 C29.848328,26.484375 29.868347,26.358887 29.805786,26.266846 C29.567139,25.915283 29.41565,25.467773 29.41565,24.915771 C29.41565,24.495605 29.752197,24.156006 30.167053,24.156006 C30.58191,24.156006 30.91858,24.495605 30.91858,24.915771 C30.91858,25.020752 30.929321,25.110596 30.947998,25.1875 C30.98529,25.341309 31.169128,25.402344 31.290771,25.302734 C31.290771,25.302734 31.292847,25.301025 31.292847,25.301025 C31.43335,25.18628 31.636963,25.187744 31.774475,25.308594 C31.774475,25.308594 31.93927,25.452148 31.93927,25.452148 C32.01642,25.519043 32.13031,25.523193 32.21039,25.459717 C32.374634,25.329346 32.48767,25.120605 32.48767,24.788818 C32.48767,24.10205 31.81366,23.935547 31.686584,23.911377 C31.324402,23.848145 31.059814,23.532227 31.059814,23.161377 C31.059814,23.161377 31.059814,21.22168 31.059814,21.22168 C31.059814,21.102295 30.963928,21.005127 30.845703,21.005127 C30.845703,21.005127 30.533813,21.005127 30.533813,21.005127 C30.533813,21.005127 30.401306,21.005127 30.401306,21.005127 C30.299255,21.005127 30.211243,20.932373 30.191345,20.831055 C30.191345,20.831055 29.225586,15.945801 29.225586,15.945801 C29.199097,15.811523 29.300415,15.686768 29.435547,15.686768 C29.435547,15.686768 29.932556,15.686768 29.932556,15.686768 C29.932556,15.686768 30.094177,15.686768 30.094177,15.686768 C30.212524,15.686768 30.30841,15.5896 30.30841,15.469971 C30.30841,15.469971 30.30841,11.058594 30.30841,11.058594 C30.30841,10.831787 30.007507,10.757568 29.904175,10.95874 C29.904175,10.95874 21.314606,27.672607 21.314606,27.672607 C21.298798,27.703125 21.290558,27.737549 21.290558,27.772217 C21.290558,27.772217 21.290558,27.840088 21.290558,27.840088 C21.290558,27.840088 21.290558,28.068848 21.290558,28.068848 C21.290558,28.068848 21.290558,28.386719 21.290558,28.386719 C21.290558,28.506104 21.194672,28.603027 21.076324,28.603027 C21.076324,28.603027 18.49878,28.603027 18.49878,28.603027 C18.380432,28.603027 18.284546,28.699951 18.284546,28.81958 C18.284546,28.81958 18.284546,29.906006 18.284546,29.906006 C18.284546,30.025635 18.18866,30.122559 18.070435,30.122559 C18.070435,30.122559 7.7637634,30.122559 7.7637634,30.122559 C7.7637634,30.122559 7.226471,30.122559 7.226471,30.122559 C7.108124,30.122559 7.0122375,30.025635 7.0122375,29.906006 C7.0122375,29.906006 7.0122375,28.81958 7.0122375,28.81958 C7.0122375,28.699951 6.916443,28.603027 6.7980957,28.603027 C6.7980957,28.603027 3.2547913,28.603027 3.2547913,28.603027 C3.2547913,28.603027 2.7174988,28.603027 2.7174988,28.603027 C2.5992737,28.603027 2.503357,28.506104 2.503357,28.386719 C2.503357,28.386719 2.503357,14.383545 2.503357,14.383545 C2.503357,14.26416 2.5992737,14.166992 2.7174988,14.166992 C2.7174988,14.166992 13.561462,14.166992 13.561462,14.166992 ZM20.276062,18.11792 C20.276062,18.11792 20.266998,18.13086 20.266998,18.13086 C20.266998,18.13086 22.77475,19.780762 22.77475,19.780762 C22.94928,19.895508 23.166687,19.716797 23.091187,19.520752 C23.091187,19.520752 21.898804,16.428223 21.898804,16.428223 C21.83725,16.268555 21.62564,16.240967 21.52597,16.379395 C21.52597,16.379395 20.276062,18.11792 20.276062,18.11792 ZM31.059814,15.469971 C31.059814,15.5896 31.1557,15.686768 31.274048,15.686768 C31.274048,15.686768 31.435669,15.686768 31.435669,15.686768 C31.435669,15.686768 31.597107,15.686768 31.597107,15.686768 C31.715454,15.686768 31.81134,15.5896 31.81134,15.469971 C31.81134,15.469971 31.81134,8.176758 31.81134,8.176758 C31.81134,7.951172 31.512573,7.8759766 31.407959,8.075439 C31.407959,8.075439 31.084778,8.69165 31.084778,8.69165 C31.06842,8.7229 31.059814,8.7578125 31.059814,8.792969 C31.059814,8.792969 31.059814,15.469971 31.059814,15.469971 ZM30.691101,7.394287 C30.691101,7.394287 31.612549,5.624756 31.612549,5.624756 C31.66394,5.526123 31.632812,5.4040527 31.54071,5.3430176 C31.54071,5.3430176 30.104004,4.3879395 30.104004,4.3879395 C29.945862,4.282959 29.740417,4.421631 29.776001,4.609619 C29.776001,4.609619 30.29126,7.3339844 30.29126,7.3339844 C30.329224,7.5351562 30.59668,7.5754395 30.691101,7.394287 ZM28.372192,6.1413574 C28.372192,6.1413574 27.307983,8.008057 27.307983,8.008057 C27.250977,8.108398 27.281677,8.23584 27.377563,8.29834 C27.377563,8.29834 29.095337,9.416748 29.095337,9.416748 C29.256104,9.521484 29.46167,9.376953 29.42035,9.187988 C29.42035,9.187988 28.766785,6.2026367 28.766785,6.2026367 C28.724548,6.01001 28.469666,5.970215 28.372192,6.1413574 ZM28.251648,11.045898 C28.251648,11.045898 26.662964,10.001465 26.662964,10.001465 C26.50232,9.895752 26.295898,10.040039 26.336975,10.229248 C26.336975,10.229248 26.958923,13.089844 26.958923,13.089844 C27.001648,13.285889 27.262573,13.322998 27.35675,13.145996 C27.35675,13.145996 28.323425,11.330078 28.323425,11.330078 C28.376282,11.230713 28.345032,11.107178 28.251648,11.045898 ZM25.01416,11.419922 C25.01416,11.419922 23.806763,13.200195 23.806763,13.200195 C23.738342,13.301025 23.766052,13.439209 23.86792,13.504883 C23.86792,13.504883 25.683167,14.68042 25.683167,14.68042 C25.842896,14.783691 26.046936,14.641602 26.008423,14.453857 C26.008423,14.453857 25.400513,11.498291 25.400513,11.498291 C25.36206,11.311279 25.12091,11.262451 25.01416,11.419922 ZM25.39215,16.66626 C25.39215,16.66626 23.39032,15.279297 23.39032,15.279297 C23.217773,15.159912 22.995514,15.335693 23.068604,15.533691 C23.068604,15.533691 24.208557,18.62085 24.208557,18.62085 C24.273682,18.79712 24.514954,18.81128 24.599854,18.643799 C24.599854,18.643799 25.461731,16.943604 25.461731,16.943604 C25.510925,16.846436 25.48108,16.727783 25.39215,16.66626 ZM21.743164,23.61499 C21.743164,23.61499 22.742706,21.831299 22.742706,21.831299 C22.796844,21.73462 22.77005,21.612793 22.680908,21.54834 C22.680908,21.54834 20.199371,19.756592 20.199371,19.756592 C20.023804,19.629883 19.794006,19.81543 19.877441,20.016602 C19.877441,20.016602 21.359344,23.591553 21.359344,23.591553 C21.428131,23.757812 21.655396,23.77124 21.743164,23.61499 ZM20.222717,25.03833 C20.222717,25.03833 18.437195,21.147705 18.437195,21.147705 C18.36853,20.998291 18.166565,20.978027 18.07019,21.11084 C18.07019,21.11084 16.617828,23.113037 16.617828,23.113037 C16.54242,23.217285 16.57309,23.364502 16.683533,23.428955 C16.683533,23.428955 19.921387,25.317139 19.921387,25.317139 C20.10254,25.422852 20.31073,25.230225 20.222717,25.03833 ZM5.7235107,21.764893 C5.7235107,21.764893 10.555542,21.764893 10.555542,21.764893 C10.673889,21.764893 10.769653,21.667969 10.769653,21.548584 C10.769653,21.548584 10.769653,17.422607 10.769653,17.422607 C10.769653,17.302979 10.673889,17.206299 10.555542,17.206299 C10.555542,17.206299 5.7235107,17.206299 5.7235107,17.206299 C5.6051636,17.206299 5.5092773,17.302979 5.5092773,17.422607 C5.5092773,17.422607 5.5092773,21.548584 5.5092773,21.548584 C5.5092773,21.667969 5.6051636,21.764893 5.7235107,21.764893 ZM36.711,34.681396 C36.711,34.681396 37.24829,34.681396 37.24829,34.681396 C37.36664,34.681396 37.462524,34.77832 37.462524,34.897705 C37.462524,34.897705 37.462524,35.984375 37.462524,35.984375 C37.462524,36.104004 37.36664,36.200928 37.24829,36.200928 C37.24829,36.200928 25.652954,36.200928 25.652954,36.200928 C25.534607,36.200928 25.43872,36.104004 25.43872,35.984375 C25.43872,35.984375 25.43872,34.897705 25.43872,34.897705 C25.43872,34.77832 25.534607,34.681396 25.652954,34.681396 C25.652954,34.681396 26.72754,34.681396 26.72754,34.681396 C26.845886,34.681396 26.94165,34.584473 26.94165,34.464844 C26.94165,34.464844 26.94165,33.161865 26.94165,33.161865 C26.94165,33.161865 26.94165,32.61841 26.94165,32.61841 C26.94165,32.499023 26.845886,32.401855 26.72754,32.401855 C26.72754,32.401855 25.652954,32.401855 25.652954,32.401855 C25.534607,32.401855 25.43872,32.305176 25.43872,32.185547 C25.43872,32.185547 25.43872,31.098877 25.43872,31.098877 C25.43872,30.979248 25.534607,30.882324 25.652954,30.882324 C25.652954,30.882324 37.24829,30.882324 37.24829,30.882324 C37.36664,30.882324 37.462524,30.979248 37.462524,31.098877 C37.462524,31.098877 37.462524,32.185547 37.462524,32.185547 C37.462524,32.305176 37.36664,32.401855 37.24829,32.401855 C37.24829,32.401855 36.173706,32.401855 36.173706,32.401855 C36.05542,32.401855 35.959473,32.499023 35.959473,32.61841 C35.959473,32.61841 35.959473,34.464844 35.959473,34.464844 C35.959473,34.584473 36.05542,34.681396 36.173706,34.681396 C36.173706,34.681396 36.711,34.681396 36.711,34.681396 Z"/>
</svg>